<svg id="visual" viewBox="0 0 900 600" width="900" height="600" xmlns="http://www.w3.org/2000/svg" xmlns:xlink="http://www.w3.org/1999/xlink" version="1.1"><rect x="0" y="0" width="900" height="600" fill="#f9f9f9"></rect><defs><linearGradient id="grad1_0" x1="33.3%" y1="0%" x2="100%" y2="100%"><stop offset="20%" stop-color="#f9f9f9" stop-opacity="1"></stop><stop offset="80%" stop-color="#f9f9f9" stop-opacity="1"></stop></linearGradient></defs><defs><linearGradient id="grad2_0" x1="0%" y1="0%" x2="66.7%" y2="100%"><stop offset="20%" stop-color="#f9f9f9" stop-opacity="1"></stop><stop offset="80%" stop-color="#f9f9f9" stop-opacity="1"></stop></linearGradient></defs><g transform="translate(900, 0)"><path d="M0 486.7C-67.6 483.7 -135.2 480.7 -186.3 449.7C-237.3 418.7 -271.7 359.7 -311.8 311.8C-351.9 264 -397.7 227.3 -427.8 177.2C-457.9 127.1 -472.3 63.5 -486.7 0L0 0Z" fill="#007aff"></path></g><g transform="translate(0, 600)"><path d="M0 -486.7C66.3 -482.7 132.7 -478.6 186.3 -449.7C239.8 -420.8 280.6 -367.1 318.2 -318.2C355.7 -269.3 390 -225.2 417.6 -173C445.1 -120.7 465.9 -60.4 486.7 0L0 0Z" fill="#007aff"></path></g></svg>